PathFileType	4	(X/Y/Z)	../motion_lab\static\static_01\task.trc
DataRate	CameraRate	NumFrames	NumMarkers	Units	OrigDataRate	OrigDataStartFrame	OrigNumFrames
200.000000	200.000000	4	73	mm	200.000000	606	693
Frame#	Time	Athlete_3:GLAB			Athlete_3:RFHD			Athlete_3:LFHD			Athlete_3:C7			Athlete_3:T6			Athlete_3:SPINMOL			Athlete_3:SPINM2			Athlete_3:SPINM3			Athlete_3:T12			Athlete_3:BELTOL			Athlete_3:BELT2			Athlete_3:BELT3			Athlete_3:SACROL			Athlete_3:SACR2			Athlete_3:SACR3			Athlete_3:LASI			Athlete_3:RASI			Athlete_3:LPSI			Athlete_3:RPSI			Athlete_3:LTHOL			Athlete_3:LTH2			Athlete_3:LTH3			Athlete_3:LKNEL			Athlete_3:LKNEM			Athlete_3:LFIB			Athlete_3:LSHAOL			Athlete_3:LSHA2			Athlete_3:LSHA3			Athlete_3:LMALL			Athlete_3:LMALM			Athlete_3:LHEE			Athlete_3:LTOE			Athlete_3:LM5			Athlete_3:RTHOL			Athlete_3:RTH2			Athlete_3:RTH3			Athlete_3:RKNEL			Athlete_3:RKNEM			Athlete_3:RFIB			Athlete_3:RSHAOL			Athlete_3:RSHA2			Athlete_3:RSHA3			Athlete_3:RMALL			Athlete_3:RMALM			Athlete_3:RHEE			Athlete_3:RTOE			Athlete_3:RM5			Athlete_3:STRN			Athlete_3:XIPH			Athlete_3:LACR			Athlete_3:LUAOL			Athlete_3:LUA2			Athlete_3:LUA3			Athlete_3:LCUBL			Athlete_3:LCUBM			Athlete_3:LLAOL			Athlete_3:LLA2			Athlete_3:LLA3			Athlete_3:LWRR			Athlete_3:LWRU			Athlete_3:RACR			Athlete_3:RUAOL			Athlete_3:RUA2			Athlete_3:RUA3			Athlete_3:RCUBL			Athlete_3:RCUBM			Athlete_3:RLAOL			Athlete_3:RLA2			Athlete_3:RLA3			Athlete_3:RWRR			Athlete_3:RWRU			Bar:BL			Bar:BR			
		X1	Y1	Z1	X2	Y2	Z2	X3	Y3	Z3	X4	Y4	Z4	X5	Y5	Z5	X6	Y6	Z6	X7	Y7	Z7	X8	Y8	Z8	X9	Y9	Z9	X10	Y10	Z10	X11	Y11	Z11	X12	Y12	Z12	X13	Y13	Z13	X14	Y14	Z14	X15	Y15	Z15	X16	Y16	Z16	X17	Y17	Z17	X18	Y18	Z18	X19	Y19	Z19	X20	Y20	Z20	X21	Y21	Z21	X22	Y22	Z22	X23	Y23	Z23	X24	Y24	Z24	X25	Y25	Z25	X26	Y26	Z26	X27	Y27	Z27	X28	Y28	Z28	X29	Y29	Z29	X30	Y30	Z30	X31	Y31	Z31	X32	Y32	Z32	X33	Y33	Z33	X34	Y34	Z34	X35	Y35	Z35	X36	Y36	Z36	X37	Y37	Z37	X38	Y38	Z38	X39	Y39	Z39	X40	Y40	Z40	X41	Y41	Z41	X42	Y42	Z42	X43	Y43	Z43	X44	Y44	Z44	X45	Y45	Z45	X46	Y46	Z46	X47	Y47	Z47	X48	Y48	Z48	X49	Y49	Z49	X50	Y50	Z50	X51	Y51	Z51	X52	Y52	Z52	X53	Y53	Z53	X54	Y54	Z54	X55	Y55	Z55	X56	Y56	Z56	X57	Y57	Z57	X58	Y58	Z58	X59	Y59	Z59	X60	Y60	Z60	X61	Y61	Z61	X62	Y62	Z62	X63	Y63	Z63	X64	Y64	Z64	X65	Y65	Z65	X66	Y66	Z66	X67	Y67	Z67	X68	Y68	Z68	X69	Y69	Z69	X70	Y70	Z70	X71	Y71	Z71	X72	Y72	Z72	X73	Y73	Z73	

607	3.03	1216.924072265625	1575.455566406251	350.5627746582032	1140.0859375	1589.534057617188	291.9929504394532	1292.265380859375	1589.979003906251	287.1202087402345	1212.56298828125	1448.416870117188	127.9950408935547	1227.34375	1243.194702148438	75.77456665039065	1231.432250976563	1211.046020507813	71.70549774169925	1179.37060546875	1150.271728515625	67.32519531250003	1228.327758789063	1149.2734375	76.01684570312503	1227.271606445313	1108.882934570313	90.20949554443362	1226.582397460938	1086.324829101563	67.5968933105469	1173.443359375	1026.766479492188	69.12210845947268	1223.03271484375	1024.533569335938	61.5108337402344	1248.427124023438	975.4545898437505	72.1514587402344	1198.601806640625	985.0285034179692	79.12735748291018	1209.767211914063	926.865112304688	48.78740692138675	1337.041625976563	942.5079956054692	288.5459289550782	1109.274658203125	942.140991210938	292.6279296875001	1260.181518554688	991.3992309570317	83.70080566406253	1170.927734375	990.0625610351567	84.361198425293	1444.286254882813	737.5587158203127	202.5963897705079	1427.391235351563	676.9138183593752	153.4294891357422	1441.429931640625	675.5603027343752	201.7605895996095	1427.60546875	497.7707214355471	193.1700744628907	1283.742065429688	466.0878906250002	216.7194671630861	1428.597412109375	442.2367858886721	152.9353332519532	1450.026245117188	326.1834106445314	145.358871459961	1444.694091796875	260.2560119628907	102.056983947754	1450.267211914063	264.3332824707032	151.4219818115235	1434.126098632813	85.34270477294925	126.1903839111329	1350.48681640625	96.30894470214849	169.4240722656251	1374.808471679688	38.93854904174806	78.45770263671878	1391.233642578125	47.31314849853517	289.6695251464845	1492.158203125	32.0913772583008	238.5824737548829	1006.70556640625	708.2952880859377	175.0026397705079	992.9797973632817	636.0677490234377	206.3811950683595	1009.873291015625	647.6509399414065	160.634017944336	1014.077819824219	496.935485839844	160.6115417480469	1151.793090820313	461.4724731445315	209.1459808349611	1015.623657226563	442.4996337890627	116.635841369629	998.2926635742192	323.3170776367189	91.20693206787112	983.2805175781255	256.1098937988282	131.0100860595704	1002.458984375	262.2108459472657	84.9490661621094	1016.798217773438	86.76454925537112	90.06122589111331	1084.273071289063	97.00790405273443	153.0804138183594	1077.677856445313	38.2510108947754	58.05629730224612	1022.243408203125	43.21331787109376	261.5985717773439	937.2036132812505	40.94956970214845	202.3482513427736	1225.311889648438	1368.533569335938	278.8803100585939	1227.303466796875	1211.105834960938	318.5148315429689	1400.919311523438	1413.489501953125	139.0287475585938	1514.890869140625	1348.174682617188	128.2521057128907	1557.543945312501	1297.707763671875	120.0881042480469	1574.269409179688	1333.79345703125	153.7387847900391	1682.632568359376	1296.965087890625	166.8112792968751	1632.716674804688	1211.060668945313	190.0412139892579	1768.079101562501	1266.027709960938	197.1385498046876	1822.638671875001	1229.732177734375	203.9409179687501	1815.695434570313	1261.59326171875	242.3307037353517	1860.566528320313	1191.0908203125	312.9395141601564	1903.756958007813	1212.803833007813	255.974090576172	1042.117797851563	1402.787719726563	156.4289550781251	909.497436523438	1335.852661132813	167.8071594238282	866.7340698242192	1327.66650390625	218.1307525634767	846.0598754882817	1316.101928710938	173.1516265869141	795.5391235351567	1289.516845703125	165.9433746337891	809.4301147460942	1196.064208984375	222.0242462158204	673.189880371094	1272.01123046875	224.126678466797	633.705261230469	1260.763916015625	274.9815673828126	613.3611450195315	1247.579345703125	230.3197021484376	580.9606933593752	1180.579833984375	313.3372497558595	544.207702636719	1212.5703125	247.1812438964845	2307.407470703126	1285.451538085938	1512.090087890625	83.94270324707034	1283.398193359375	1540.660522460938	
608	3.035	1216.894775390625	1575.456542968751	350.5274047851564	1140.055053710938	1589.537353515626	291.9689941406251	1292.235961914063	1589.983764648438	287.0991516113282	1212.543579101563	1448.413208007813	127.9830398559571	1227.330932617188	1243.1923828125	75.76481628417972	1231.424072265625	1211.046997070313	71.69734954833987	1179.361450195313	1150.269287109375	67.32167816162112	1228.31396484375	1149.284057617188	76.00633239746097	1227.265747070313	1108.882690429688	90.19738769531253	1226.571166992188	1086.322265625	67.59040832519534	1173.434692382813	1026.77001953125	69.12282562255862	1223.032958984375	1024.536010742188	61.50500488281253	1248.41064453125	975.4519042968755	72.14602661132815	1198.613159179688	984.9877929687505	79.13613891601565	1209.74951171875	926.8826293945317	48.79178619384768	1337.041625976563	942.5138549804692	288.5472106933595	1109.278076171875	942.1211547851567	292.640838623047	1260.17626953125	991.3981933593755	83.70706176757815	1170.931884765625	990.0563354492192	84.35729980468753	1444.281616210938	737.5612792968752	202.5917053222657	1427.399658203125	676.9182128906252	153.4219970703126	1441.44091796875	675.5613403320315	201.7520904541017	1427.599975585938	497.7730712890627	193.1649169921876	1283.7412109375	466.0911865234377	216.6946411132814	1428.597045898438	442.235778808594	152.9277801513672	1450.030029296875	326.1859436035157	145.3614196777344	1444.7001953125	260.259979248047	102.055160522461	1450.265991210938	264.3368225097657	151.4155883789063	1434.128173828125	85.34381866455081	126.1910552978516	1350.484985351563	96.31077575683599	169.4156036376954	1374.81640625	38.93631744384767	78.45439147949222	1391.233276367188	47.3087730407715	289.6709899902345	1492.159545898438	32.09452438354494	238.5806732177736	1006.706115722657	708.2969360351565	174.9996643066407	992.9674682617192	636.0666503906252	206.3560028076173	1009.877746582032	647.644226074219	160.609848022461	1014.083557128907	496.9390869140627	160.5977783203126	1151.793334960938	461.4621887207034	209.1340179443361	1015.622680664063	442.506286621094	116.6343536376954	998.6039428710942	323.2960815429689	91.37466430664065	983.2734985351567	256.102264404297	131.0001525878907	1002.461669921875	262.2108154296876	84.95274353027347	1016.797424316407	86.76202392578128	90.06732177734378	1084.273071289063	97.00234985351568	153.0805969238282	1077.677490234375	38.25456619262697	58.05432128906253	1022.299743652344	43.19455718994142	261.5875854492189	937.1995239257817	40.95559310913087	202.3401794433595	1225.287353515625	1368.524536132813	278.8597106933595	1227.288330078125	1211.108032226563	318.4984741210939	1400.894653320313	1413.48583984375	139.0193634033204	1514.876831054688	1348.179931640625	128.2521667480469	1557.527465820313	1297.707275390625	120.0707626342774	1574.251464843751	1333.792846679688	153.7461853027344	1682.610107421876	1296.9658203125	166.8245239257813	1632.694946289063	1211.057006835938	190.0434265136719	1768.072509765626	1266.021362304688	197.1531829833986	1822.616088867188	1229.725708007813	203.9539642333986	1815.677001953126	1261.5791015625	242.3514709472657	1860.532836914063	1191.065673828125	312.9482727050782	1903.725585937501	1212.787231445313	255.9842681884767	1042.091186523438	1402.767822265625	156.4129486083985	909.4650878906255	1335.803833007813	167.7737731933594	866.7113647460942	1327.6240234375	218.1151428222657	846.052856445313	1316.062377929688	173.1242065429688	795.5281372070317	1289.45068359375	165.9248046875001	809.425903320313	1196.015380859375	222.0198516845704	673.1768798828127	1271.952758789063	224.0811462402345	633.6568603515627	1260.7841796875	275.0028686523439	613.2900390625002	1247.659057617188	230.2657775878907	580.963317871094	1180.523803710938	313.3384399414064	544.207214355469	1212.49365234375	247.1640625000001	2307.396728515626	1285.442626953125	1512.068603515625	83.94258117675784	1283.4013671875	1540.661010742188	
609	3.04	1216.866333007813	1575.445922851563	350.4909667968751	1140.025146484375	1589.538818359376	291.9514160156251	1292.203857421875	1589.981201171876	287.0797729492189	1212.5244140625	1448.413818359375	127.9720535278321	1227.326782226563	1243.192626953125	75.76643371582034	1231.400634765625	1211.046630859375	71.67263793945315	1179.353637695313	1150.267456054688	67.3222351074219	1228.309814453125	1149.283569335938	76.00262451171878	1227.258422851563	1108.883056640625	90.19923400878909	1226.573120117188	1086.319091796875	67.58408355712893	1173.4345703125	1026.763793945313	69.11231994628909	1223.0263671875	1024.533447265625	61.49680328369143	1248.427490234375	975.4123535156255	72.16403961181643	1198.618896484375	985.0360717773442	79.09625244140628	1209.745239257813	926.8759765625005	48.78801345825198	1337.037475585938	942.521118164063	288.5437011718751	1109.274291992188	942.122192382813	292.6389160156251	1260.184692382813	991.403442382813	83.70397949218753	1170.916381835938	990.059936523438	84.35351562500003	1444.286254882813	737.5632934570315	202.5852355957032	1427.410278320313	676.936462402344	153.4153442382813	1441.44091796875	675.5693359375002	201.7451934814454	1427.600463867188	497.7795715332034	193.1592254638673	1283.73388671875	466.0926208496096	216.6939544677736	1428.60400390625	442.242614746094	152.9282989501954	1450.02685546875	326.1862182617189	145.3480987548829	1444.697265625	260.2586059570314	102.0516510009766	1450.26318359375	264.3383789062501	151.4129486083985	1434.130126953125	85.33865356445315	126.1858062744141	1350.481567382813	96.31728363037115	169.4246368408204	1374.824951171875	38.94004821777345	78.43653869628909	1391.23095703125	47.31116104125978	289.6730346679689	1492.158569335938	32.0941734313965	238.5863647460939	1006.707153320313	708.2947387695315	174.9871368408204	992.9699096679692	636.0672607421877	206.3551330566407	1009.879638671875	647.6546020507815	160.6083221435547	1014.085144042969	496.9341125488284	160.5945281982422	1151.801513671875	461.4665222167971	209.1326293945314	1015.616333007813	442.5052795410159	116.6275024414063	998.6103515625005	323.3067321777345	91.4011154174805	983.2699584960942	256.1002197265626	130.9883575439454	1002.467895507813	262.211395263672	84.95124053955081	1016.798461914063	86.75930023193362	90.071403503418	1084.270629882813	97.00616455078131	153.0806579589844	1077.675903320313	38.24577713012697	58.0701713562012	1022.239318847657	43.2121047973633	261.6050109863282	937.193725585938	40.9526824951172	202.3423004150392	1225.268676757813	1368.514038085938	278.8473205566407	1227.264892578125	1211.110961914063	318.4893188476564	1400.869384765625	1413.482788085938	139.0001678466797	1514.850708007813	1348.167358398438	128.2276153564454	1557.514892578126	1297.701171875	120.0837936401368	1574.229736328126	1333.795532226563	153.7410278320313	1682.598876953126	1296.968017578125	166.8322753906251	1632.678466796876	1211.044311523438	190.0360565185547	1768.031494140626	1266.010864257813	197.1653442382814	1822.604980468751	1229.723388671875	203.9656677246095	1815.656616210938	1261.567016601563	242.369598388672	1860.501831054688	1191.034545898438	312.9400024414064	1903.693603515626	1212.757934570313	256.0037841796876	1042.066772460938	1402.746337890625	156.3941040039063	909.4685668945317	1335.767211914063	167.7511596679688	866.7001953125005	1327.5849609375	218.0577392578126	846.0390625000005	1316.013427734375	173.094711303711	795.5180664062505	1289.374755859375	165.9061737060547	809.4352416992192	1195.970458984375	222.0093231201173	673.238952636719	1271.737060546875	224.0726928710939	633.5023193359377	1260.578979492188	275.0737609863282	613.2956542968752	1247.579711914063	230.2555389404298	580.9697265625002	1180.46044921875	313.331512451172	544.205993652344	1212.412963867188	247.1552124023439	2307.396240234376	1285.440307617188	1512.072998046875	83.94754028320315	1283.39404296875	1540.657836914063	
610	3.045	1216.820068359375	1575.453735351563	350.4791259765626	1139.992431640625	1589.544189453126	291.9475402832032	1292.170776367188	1589.979858398438	287.0648498535157	1212.506469726563	1448.398681640625	127.9627990722657	1227.325073242188	1243.191528320313	75.73948669433597	1231.395141601563	1211.037719726563	71.658805847168	1179.341186523438	1150.260864257813	67.32041168212893	1228.302490234375	1149.268432617188	76.00553894042972	1227.250732421875	1108.886108398438	90.19919586181643	1226.557861328125	1086.321166992188	67.579460144043	1173.434692382813	1026.767944335938	69.10892486572268	1223.036254882813	1024.533081054688	61.49068832397464	1248.422973632813	975.4262695312505	72.11338043212893	1198.599487304688	984.9779663085942	79.11296081542972	1209.759155273438	926.8895874023442	48.69315338134768	1337.031372070313	942.5286254882817	288.5423583984376	1109.274780273438	942.1212768554692	292.6311340332032	1260.169067382813	991.3981933593755	83.70880889892581	1170.919921875	990.0595092773442	84.33792877197268	1444.289916992188	737.5610961914065	202.5861053466798	1427.427001953125	676.9277343750002	153.4141540527344	1441.435424804688	675.5538330078127	201.7451477050782	1427.593017578125	497.7775573730471	193.1456604003907	1283.746704101563	466.1001281738284	216.6724853515626	1428.609619140625	442.2456054687502	152.9180908203126	1450.03369140625	326.187713623047	145.3419036865235	1444.692749023438	260.2597961425782	102.0429687500001	1450.259399414063	264.3330688476564	151.4049987792969	1434.1318359375	85.34116363525393	126.1882095336915	1350.48388671875	96.31444549560553	169.4228057861329	1374.827880859375	38.93588638305665	78.43706512451175	1391.233520507813	47.30701446533205	289.6698608398439	1492.161376953125	32.08787536621095	238.5779571533204	1006.708435058594	708.2944335937502	174.9872436523438	992.9794311523442	636.0608520507815	206.3590545654298	1009.878295898438	647.6448974609377	160.5954132080079	1014.082458496094	496.9339294433596	160.5835876464844	1151.797973632813	461.4749450683596	209.1438903808595	1015.624145507813	442.5025024414065	116.6234970092774	998.3027954101567	323.3038635253907	91.17429351806643	983.2758178710942	256.1008605957032	130.9896545410157	1002.461730957032	262.2117614746095	84.93729400634768	1016.798095703125	86.75542449951175	90.06475067138675	1084.271728515625	97.00438690185553	153.0779571533204	1077.673706054688	38.24658966064455	58.05833816528323	1022.247741699219	43.20629501342775	261.6065673828126	937.1967773437505	40.95569610595705	202.3429107666017	1225.244384765625	1368.510864257813	278.8283081054689	1227.251953125	1211.105102539063	318.4680786132814	1400.849975585938	1413.483642578125	138.9759521484376	1514.82275390625	1348.155395507813	128.2265319824219	1557.515014648438	1297.699951171875	120.0921630859376	1574.210327148438	1333.793334960938	153.7344055175782	1682.587524414063	1296.968994140625	166.861557006836	1632.520996093751	1210.951538085938	190.0698394775391	1768.043212890626	1266.000732421875	197.2059936523439	1822.580444335938	1229.723022460938	203.9804992675782	1815.628662109376	1261.546752929688	242.3882446289064	1860.478271484376	1191.010864257813	312.9567871093751	1903.670166015626	1212.74365234375	256.0096435546876	1042.038696289063	1402.728759765625	156.3864746093751	909.4538574218755	1335.741455078125	167.6929626464844	866.6769409179692	1327.535766601563	218.0202026367189	846.0161132812505	1315.977416992188	173.0748443603516	795.5009765625005	1289.299560546875	165.887191772461	809.4372558593755	1195.92822265625	222.0293121337892	673.1924438476565	1271.792846679688	224.0641174316407	633.6022949218752	1260.749145507813	275.0178222656251	613.2867431640627	1247.440551757813	230.2991790771486	580.9661254882815	1180.395263671875	313.3171386718751	544.2042236328127	1212.33837890625	247.1487121582032	2307.383300781251	1285.450805664063	1512.057006835938	83.95334625244143	1283.401489257813	1540.659667968751	
